<svg width="21" height="21" viewBox="0 0 21 21" fill="none" xmlns="http://www.w3.org/2000/svg">
<path fill-rule="evenodd" clip-rule="evenodd" d="M6.91277 11.659C6.37547 11.659 5.93896 11.2225 5.93896 10.6852C5.93896 10.1495 6.37547 9.71301 6.91277 9.71301C7.45008 9.71301 7.88658 10.1495 7.88658 10.6852C7.88658 11.2225 7.45008 11.659 6.91277 11.659ZM10.6985 11.659C10.1612 11.659 9.72466 11.2225 9.72466 10.6852C9.72466 10.1495 10.1612 9.71301 10.6985 9.71301C11.2358 9.71301 11.6723 10.1495 11.6723 10.6852C11.6723 11.2225 11.2358 11.659 10.6985 11.659ZM13.5105 10.6852C13.5105 11.2225 13.947 11.659 14.4843 11.659C15.0216 11.659 15.4581 11.2225 15.4581 10.6852C15.4581 10.1495 15.0216 9.71301 14.4843 9.71301C13.947 9.71301 13.5105 10.1495 13.5105 10.6852Z" fill="url(#paint0_linear_88_1605)"/>
<path fill-rule="evenodd" clip-rule="evenodd" d="M10.5167 2.16663C5.67508 2.16663 2.16675 6.12173 2.16675 10.5125C2.16675 11.9146 2.57508 13.3576 3.29175 14.6762C3.42508 14.8941 3.44175 15.1686 3.35008 15.4282L2.79175 17.2977C2.66675 17.7483 3.05008 18.0813 3.47508 17.9478L5.15841 17.4479C5.61675 17.2977 5.97508 17.4888 6.40008 17.7483C7.61675 18.4652 9.13342 18.8333 10.5001 18.8333C14.6334 18.8333 18.8334 15.6368 18.8334 10.4874C18.8334 6.04661 15.2501 2.16663 10.5167 2.16663Z" stroke="url(#paint1_linear_88_1605)" stroke-width="1.5" stroke-linecap="round" stroke-linejoin="round"/>
<defs>
<linearGradient id="paint0_linear_88_1605" x1="15.4581" y1="11.659" x2="5.8444" y2="10.8799" gradientUnits="userSpaceOnUse">
<stop stop-color="#888BF4"/>
<stop offset="1" stop-color="#5151C6"/>
</linearGradient>
<linearGradient id="paint1_linear_88_1605" x1="18.8334" y1="18.8333" x2="1.89527" y2="18.5527" gradientUnits="userSpaceOnUse">
<stop stop-color="#888BF4"/>
<stop offset="1" stop-color="#5151C6"/>
</linearGradient>
</defs>
</svg>
