<svg width="21" height="21" viewBox="0 0 21 21" fill="none" xmlns="http://www.w3.org/2000/svg">
<path fill-rule="evenodd" clip-rule="evenodd" d="M10.2746 4.66972C15.2546 4.51389 18.1913 9.15889 18.723 10.0856C18.8696 10.3422 18.8696 10.6581 18.723 10.9147C18.0113 12.1556 15.3313 16.2131 10.7255 16.3306C10.6571 16.3322 10.5888 16.3331 10.5205 16.3331C5.63463 16.3331 2.8013 11.8289 2.27713 10.9147C2.12963 10.6581 2.12963 10.3422 2.27713 10.0856C2.9888 8.84472 5.66796 4.78639 10.2746 4.66972ZM10.683 14.6647C7.09463 14.7481 4.7538 11.6789 3.97713 10.4964C4.83213 9.15889 6.98546 6.42056 10.3171 6.33556C13.8913 6.24472 16.2455 9.32139 17.0221 10.5039C16.168 11.8414 14.0138 14.5797 10.683 14.6647ZM7.58321 10.5001C7.58321 8.89172 8.89155 7.58339 10.4999 7.58339C12.1082 7.58339 13.4165 8.89172 13.4165 10.5001C13.4165 12.1084 12.1082 13.4167 10.4999 13.4167C8.89155 13.4167 7.58321 12.1084 7.58321 10.5001ZM9.24988 10.5001C9.24988 11.1892 9.81071 11.7501 10.4999 11.7501C11.189 11.7501 11.7499 11.1892 11.7499 10.5001C11.7499 9.81089 11.189 9.25006 10.4999 9.25006C9.81071 9.25006 9.24988 9.81089 9.24988 10.5001Z" fill="url(#paint0_linear_88_1869)"/>
<mask id="mask0_88_1869" style="mask-type:alpha" maskUnits="userSpaceOnUse" x="2" y="4" width="17" height="13">
<path fill-rule="evenodd" clip-rule="evenodd" d="M10.2746 4.66972C15.2546 4.51389 18.1913 9.15889 18.723 10.0856C18.8696 10.3422 18.8696 10.6581 18.723 10.9147C18.0113 12.1556 15.3313 16.2131 10.7255 16.3306C10.6571 16.3322 10.5888 16.3331 10.5205 16.3331C5.63463 16.3331 2.8013 11.8289 2.27713 10.9147C2.12963 10.6581 2.12963 10.3422 2.27713 10.0856C2.9888 8.84472 5.66796 4.78639 10.2746 4.66972ZM10.683 14.6647C7.09463 14.7481 4.7538 11.6789 3.97713 10.4964C4.83213 9.15889 6.98546 6.42056 10.3171 6.33556C13.8913 6.24472 16.2455 9.32139 17.0221 10.5039C16.168 11.8414 14.0138 14.5797 10.683 14.6647ZM7.58321 10.5001C7.58321 8.89172 8.89155 7.58339 10.4999 7.58339C12.1082 7.58339 13.4165 8.89172 13.4165 10.5001C13.4165 12.1084 12.1082 13.4167 10.4999 13.4167C8.89155 13.4167 7.58321 12.1084 7.58321 10.5001ZM9.24988 10.5001C9.24988 11.1892 9.81071 11.7501 10.4999 11.7501C11.189 11.7501 11.7499 11.1892 11.7499 10.5001C11.7499 9.81089 11.189 9.25006 10.4999 9.25006C9.81071 9.25006 9.24988 9.81089 9.24988 10.5001Z" fill="white"/>
</mask>
<g mask="url(#mask0_88_1869)">
</g>
<defs>
<linearGradient id="paint0_linear_88_1869" x1="18.833" y1="16.3331" x2="1.89986" y2="15.9323" gradientUnits="userSpaceOnUse">
<stop stop-color="#888BF4"/>
<stop offset="1" stop-color="#5151C6"/>
</linearGradient>
</defs>
</svg>
